<?xml version="1.0" encoding="UTF-8"?> <svg xmlns="http://www.w3.org/2000/svg" xmlns:xlink="http://www.w3.org/1999/xlink" width="256" height="256"><defs><linearGradient x1="50%" y1="0%" x2="50%" y2="100%" id="c"><stop stop-color="#DCDCDC" offset="0%"></stop><stop stop-color="#C8C8C8" offset="100%"></stop></linearGradient><linearGradient x1="50%" y1="50%" x2="50%" y2="82.47%" id="e"><stop stop-color="#212C2A" offset="0%"></stop><stop stop-color="#445959" offset="100%"></stop></linearGradient><path d="m206 63.85-.01-7.3c-.02-2.06-.04-4.1-.1-6.16a88.8 88.8 0 0 0-1.18-13.38 45 45 0 0 0-4.21-12.72 42.8 42.8 0 0 0-18.81-18.71 45.58 45.58 0 0 0-12.8-4.2A90.31 90.31 0 0 0 155.43.21c-2.06-.06-4.12-.08-6.18-.1h-7.34L113.5 0H92.25L64.34.1l-7.35.01c-2.07.02-4.13.04-6.2.1-4.5.12-9.04.38-13.49 1.17-4.5.81-8.71 2.12-12.81 4.2a43.1 43.1 0 0 0-18.85 18.7 44.94 44.94 0 0 0-4.22 12.73A88.74 88.74 0 0 0 .23 50.4c-.05 2.05-.08 4.1-.09 6.15C.13 58.98 0 62 0 64.44v48.76l.13 27.97.01 7.3c.01 2.06.04 4.11.1 6.17.11 4.47.38 8.98 1.18 13.4a45.04 45.04 0 0 0 4.22 12.74 42.86 42.86 0 0 0 18.85 18.74c4.1 2.07 8.3 3.39 12.82 4.2a90.5 90.5 0 0 0 13.48 1.17c2.07.06 4.13.08 6.2.1l7.35.01h77.57l7.34-.01c2.06-.02 4.12-.04 6.18-.1a90.2 90.2 0 0 0 13.46-1.18c4.5-.8 8.7-2.12 12.8-4.2a43 43 0 0 0 18.8-18.73 45.11 45.11 0 0 0 4.22-12.74 89.1 89.1 0 0 0 1.18-13.4c.06-2.06.08-4.1.1-6.16l.01-7.31V63.85" id="a"></path><path d="M101.5 1.4C88.9-.47 76.53.4 64.9 3.61L55.95 6.6A88.5 88.5 0 0 0 .99 75.74a87.69 87.69 0 0 0 15.37 64.07c1.77-38.88 19.02-83.5 60.16-110.57v23.3c4.53-4.85 9.73-9.38 15.59-13.58v23.09c37.05 9.16 24.55 39.2 51.64 51.36-4.2 31.37-24.22 31.48-37.26 36.45-13.39 5.08-13.39 18.34-9.3 26.62a88.32 88.32 0 0 0 78.74-74.78c7.2-48.27-26.1-93.12-74.42-100.3Z" id="f"></path><filter x="-4.5%" y="-3.5%" width="109%" height="109%" id="b"><feOffset dy="2" in="SourceAlpha" result="shadowOffsetOuter1"></feOffset><feGaussianBlur stdDeviation="2.75" in="shadowOffsetOuter1" result="shadowBlurOuter1"></feGaussianBlur><feColorMatrix values="0 0 0 0 0 0 0 0 0 0 0 0 0 0 0 0 0 0 0.3 0" in="shadowBlurOuter1"></feColorMatrix></filter></defs><g transform="translate(25 25)" fill="none" fill-rule="evenodd"><mask id="d" fill="#fff"><use xlink:href="#a"></use></mask><use fill="#000" filter="url(#b)" xlink:href="#a"></use><use fill="url(#c)" xlink:href="#a"></use><g mask="url(#d)"><g transform="translate(-51 -51)"><circle fill="url(#e)" cx="154.16" cy="154.16" r="154.16"></circle><g stroke="#FFF" stroke-width=".5"><path fill="url(#c)" stroke-opacity=".2" d="M81.85 204.78c2.22-44.2 22.96-85.52 60.24-110.04l.39-.25v23.13c4.44-4.7 9.5-9.08 15.2-13.15l.39-.29v23.38c9.22 2.31 15.85 6.01 20.82 11.21 3.85 4.03 6.18 8 9.82 15.8l.5 1.06c3.1 6.65 4.71 9.66 7.28 13.02a32.73 32.73 0 0 0 13.07 10.24l.18.08-.03.18c-2.52 18.83-10.2 27.48-24.16 32.43a91.7 91.7 0 0 1-5.81 1.84l-1.88.56a76.49 76.49 0 0 0-5.58 1.82c-11.47 4.36-14.2 15.88-9.23 26.13 39.75-3.87 72.26-34.41 78.35-74.56 7.16-48.13-26.03-92.85-74.22-100.01a88.03 88.03 0 0 0-36.49 2.2l-8.94 2.98a88.23 88.23 0 0 0-54.8 68.95 87.4 87.4 0 0 0 14.9 63.29Z"></path><path d="m184.2 167.88-1.93-5.18a8.9 8.9 0 0 0-8.25-5.82h-10.53l1.94 5.19a8.8 8.8 0 0 0 8.24 5.81h10.53Z" fill-opacity=".8" fill="#FFF"></path></g></g><g stroke-width=".5"><path d="M52.3 84.66a93.9 93.9 0 0 0-3.22 5.47c-.97 1.8-2.11 4.05-3.42 6.78l88.37.08a40.13 40.13 0 0 0-4.19-6.47 35.1 35.1 0 0 0-6-5.86H52.3Z" stroke-opacity=".75" stroke="#FF004E" fill-opacity=".7" fill="#FF0053" opacity=".72"></path><path d="m22.56 84.66 8.61 12.25 11.88.08a153.66 153.66 0 0 1 6.63-12.33H22.56ZM41.35 64.37l-8.19 11.31 5.16 6.79h12.34l-9.3-18.1Z" stroke="#D61655" fill="#9A1A44" opacity=".8"></path></g></g></g></svg> 